<svg xmlns="http://www.w3.org/2000/svg" width="72" height="65" viewBox="0 0 72 65">
  <defs>
    <style>
      .cls-1 {
        fill: #fff;
        fill-rule: evenodd;
      }
    </style>
  </defs>
  <path id="Shape" class="cls-1" d="M324.175,754.006a5.457,5.457,0,0,0-4.936,5.694l0.218,8.918a6.864,6.864,0,0,0-5.517,3.867l-3.267,6.842a7.843,7.843,0,0,1-2.167,2.732l-0.679.543a13.742,13.742,0,0,0-5.175,11.384l-1.335-.634a1.214,1.214,0,0,0-1.617.572l-3.582,7.5a1.21,1.21,0,0,0,.574,1.614l16.5,7.842a1.214,1.214,0,0,0,1.617-.572l3.583-7.5a1.209,1.209,0,0,0-.574-1.613l-0.7-.334-0.176-2.348a3.539,3.539,0,0,1,.807-2.533L326.3,785.66c0.017-.021.033-0.042,0.049-0.064A14.13,14.13,0,0,0,329,777.172a1.236,1.236,0,0,0-.016-0.171l-3.492-21.98A1.214,1.214,0,0,0,324.175,754.006Zm-11.03,54.169-14.314-6.8,2.538-5.317,14.315,6.8ZM324.4,784.15l-8.52,10.286a5.946,5.946,0,0,0-1.358,4.256l0.073,0.967-9.382-4.457a11.34,11.34,0,0,1,4.132-10.712l0.679-.543a10.28,10.28,0,0,0,2.841-3.579l3.267-6.843a4.445,4.445,0,0,1,4.742-2.459l-4.774,10a1.213,1.213,0,0,0,2.191,1.041l5.369-11.247a1.21,1.21,0,0,0-.574-1.614,6.969,6.969,0,0,0-1.2-.437l-0.225-9.184c0-.011,0-0.022,0-0.032a3.036,3.036,0,0,1,1.644-2.856l3.266,20.553a11.693,11.693,0,0,1-2.173,6.858h0Zm-64.7,1.51,8.548,10.318a3.539,3.539,0,0,1,.807,2.533l-0.176,2.348-0.7.334a1.209,1.209,0,0,0-.574,1.613l3.583,7.5a1.214,1.214,0,0,0,1.617.572l16.5-7.842a1.21,1.21,0,0,0,.574-1.614l-3.582-7.5a1.215,1.215,0,0,0-1.617-.573l-1.335.634a13.746,13.746,0,0,0-5.175-11.384l-0.679-.543a7.842,7.842,0,0,1-2.168-2.731l-3.267-6.842a6.864,6.864,0,0,0-5.516-3.867l0.218-8.918a5.457,5.457,0,0,0-4.936-5.694,1.213,1.213,0,0,0-1.316,1.015L257.017,777a1.1,1.1,0,0,0-.016.171,14.123,14.123,0,0,0,2.652,8.424c0.016,0.022.032,0.043,0.049,0.064h0Zm27.467,15.715-14.314,6.8-2.539-5.317,14.315-6.8Zm-24.476-44.636a3.036,3.036,0,0,1,1.644,2.856c0,0.01,0,.021,0,0.032l-0.225,9.184a6.776,6.776,0,0,0-1.2.437,1.21,1.21,0,0,0-.574,1.614l5.369,11.247a1.213,1.213,0,0,0,2.191-1.04l-4.775-10a4.442,4.442,0,0,1,4.743,2.459l3.267,6.843a10.28,10.28,0,0,0,2.841,3.579l0.679,0.543a11.34,11.34,0,0,1,4.132,10.712l-9.382,4.457,0.073-.967a5.95,5.95,0,0,0-1.357-4.256L261.6,784.15a11.7,11.7,0,0,1-2.173-6.858Zm44.476,14.77a1.189,1.189,0,0,0,.831-1.127V751.618a1.191,1.191,0,0,0-.831-1.127l-13.8-4.434a1.2,1.2,0,0,0-.731,0l-13.805,4.434a1.19,1.19,0,0,0-.832,1.127v18.764a1.19,1.19,0,0,0,.831,1.127l13.8,4.434A1.2,1.2,0,0,0,293,776a1.21,1.21,0,0,0,.369-0.057Zm-12.981,1.682V756.913l11.436-3.671v16.279ZM293,748.428l9.927,3.19L293,754.807l-9.927-3.189Zm-12.624,4.815,11.436,3.67v16.278l-11.436-3.669V753.243Z" transform="translate(-257 -746)"/>
</svg>
