<svg xmlns="http://www.w3.org/2000/svg" width="65.031" height="65" viewBox="0 0 65.031 65">
  <defs>
    <style>
      .cls-1 {
        fill: #fff;
        fill-rule: evenodd;
      }
    </style>
  </defs>
  <path id="Shape" class="cls-1" d="M559.612,758.3l-0.049,10.834a1.083,1.083,0,0,1-1.737.858l-1.023-.775a23.638,23.638,0,0,0,2.32,22.752l-1.779,1.237a25.8,25.8,0,0,1-1.931-26.147,1.082,1.082,0,0,1,1.625-.382l0.369,0.279,0.032-7.221-6.94,1.991,1.094,0.827a1.085,1.085,0,0,1,.3,1.385,30.134,30.134,0,0,0-1.863,4.105l-2.035-.745a32.416,32.416,0,0,1,1.559-3.571l-2.087-1.581a1.083,1.083,0,0,1,.355-1.9l10.411-2.987A1.082,1.082,0,0,1,559.612,758.3Zm-10.159,34.774,1.937-.973a30.147,30.147,0,0,1-2.918-17.843,30.842,30.842,0,0,1,.746-3.661l-2.092-.561a32.908,32.908,0,0,0-.8,3.919,32.311,32.311,0,0,0,3.126,19.119h0Zm23.856-24.211a11.949,11.949,0,0,0-1.957,1.2l1.3,1.731a9.786,9.786,0,0,1,1.6-.98Zm-6.722,11.808h2.166v-1.084a9.723,9.723,0,0,1,2.521-6.534l-1.607-1.454a11.888,11.888,0,0,0-3.08,7.988v1.084Zm41.164,29.251v-9.751h-2.167v8.667H594.752v-13h1.083v-2.167h-1.889a16.713,16.713,0,0,0-16.043-.02l-0.037.02h-8.029a4.338,4.338,0,0,0-4.184,5.468l-4.219-1.933a1.955,1.955,0,0,1,.317-0.417l2.352-2.352a1.084,1.084,0,0,0,.317-0.766V779.582a14.123,14.123,0,0,1,10.314-13.573,1.084,1.084,0,0,0,.643-1.6l-2.559-4.332h11.369l-2.559,4.332a1.084,1.084,0,0,0,.643,1.6,14.121,14.121,0,0,1,10.314,13.573V791.5h2.167V779.582a16.3,16.3,0,0,0-10.571-15.229l2.837-4.8a1.083,1.083,0,0,0-.932-1.634H570.92a1.083,1.083,0,0,0-.933,1.634l2.838,4.8a16.3,16.3,0,0,0-10.571,15.229v13.635l-2.035,2.035a4.154,4.154,0,0,0-.76,1.044l-3.656-1.674a4.674,4.674,0,0,0-5.993,2.009,4.863,4.863,0,0,0,2,6.567l12.631,6.317a14.177,14.177,0,0,0,6.3,1.485h15.347v-2.167H570.739a11.973,11.973,0,0,1-5.329-1.257l-12.63-6.316a2.736,2.736,0,0,1-1.062-3.6,2.481,2.481,0,0,1,3.184-1.066l12.317,5.642a1.085,1.085,0,0,0,.451.1h11.916v-2.167h-9.749a2.167,2.167,0,1,1,0-4.333h8.3a1.078,1.078,0,0,0,.516-0.131l0.281-.152a14.555,14.555,0,0,1,13.647-.157v13.44h-4.333V811h18.416A1.083,1.083,0,0,0,607.751,809.917Zm-6.5-5.417a2.167,2.167,0,1,0-2.166,2.166,2.167,2.167,0,0,0,2.166-2.166h0Zm-21.665-29.251v4.333a4.334,4.334,0,0,1,0,8.667v2.167H577.42v-2.167a4.338,4.338,0,0,1-4.333-4.333h2.166a2.17,2.17,0,0,0,2.167,2.167v-4.334a4.334,4.334,0,0,1,0-8.667v-2.167h2.166v2.167a4.338,4.338,0,0,1,4.333,4.334h-2.166a2.17,2.17,0,0,0-2.167-2.167h0Zm-2.166,0a2.167,2.167,0,1,0,0,4.333v-4.333Zm2.166,6.5v4.334A2.167,2.167,0,0,0,579.586,781.749Zm3.159-33.284a30.345,30.345,0,0,1,25.64,24.8l2.134-.373a32.5,32.5,0,0,0-50.511-21.12,1.083,1.083,0,0,0-.3,1.472l3.616,5.686a1.083,1.083,0,0,0,1.54.3A23.607,23.607,0,0,1,600.2,787.8l-1.049-.794a1.083,1.083,0,0,0-1.737.859L597.361,798.7a1.083,1.083,0,0,0,1.382,1.046l10.412-2.986a1.083,1.083,0,0,0,.355-1.9l-2.064-1.563a32.715,32.715,0,0,0,3.48-17.029l-2.162.147a30.512,30.512,0,0,1-3.656,16.668,1.082,1.082,0,0,0,.3,1.385l1.071,0.811-6.941,1.991,0.033-7.221,0.394,0.3a1.084,1.084,0,0,0,1.624-.383,25.768,25.768,0,0,0-37.028-33.123l-2.45-3.853A30.225,30.225,0,0,1,582.745,748.465Z" transform="translate(-545.969 -746)"/>
</svg>
