<svg xmlns="http://www.w3.org/2000/svg" width="58" height="58" viewBox="0 0 58 58">
  <defs>
    <style>
      .cls-1 {
        fill: #fff;
        fill-rule: evenodd;
      }
    </style>
  </defs>
  <path id="XMLID_1756_" class="cls-1" d="M1171.87,793.558a1.129,1.129,0,0,0-.46-1.519,17.383,17.383,0,0,0-19.28,1.939l-1.8-1.814,2.94-2.963a1.12,1.12,0,0,0-1.58-1.588l-2.94,2.963-7.17-7.229a15.8,15.8,0,0,0,1.26-16.751,1.1,1.1,0,0,0-1.5-.465,1.133,1.133,0,0,0-.47,1.519,13.45,13.45,0,0,1-.89,14.089l-4.73-4.764a2.725,2.725,0,0,0-4.5,1l-13.58,37.316a2.735,2.735,0,0,0,3.51,3.536l37.04-13.679a2.77,2.77,0,0,0,1-4.536l-5-5.037a15.149,15.149,0,0,1,16.64-1.553,1.113,1.113,0,0,0,1.51-.465h0Zm-37.12,17.681-10.05-10.124,2.79-7.652,14.86,14.971Zm-5.44,2.012-6.6-6.648,1.15-3.164,8.59,8.652Zm-9.4,3.468a0.483,0.483,0,0,1-.53-0.118,0.514,0.514,0,0,1-.12-0.536l2.6-7.138L1127,814.1Zm37.37-14.048a0.526,0.526,0,0,1-.32.369l-6.86,2.531-6.34-6.387a1.1,1.1,0,0,0-1.57,0,1.12,1.12,0,0,0,0,1.588l5.61,5.65-3.14,1.16-16.33-16.443,1.16-3.163,5.6,5.65a1.125,1.125,0,0,0,.79.329,1.108,1.108,0,0,0,.79-0.329,1.12,1.12,0,0,0,0-1.588l-6.34-6.386,2.51-6.9a0.508,0.508,0,0,1,.37-0.323,0.5,0.5,0,0,1,.11-0.013,0.493,0.493,0,0,1,.36.15l23.46,23.638a0.51,0.51,0,0,1,.14.47h0ZM1151.14,770a1.136,1.136,0,0,0,1.13-1.137,1.732,1.732,0,0,1,1.73-1.726,4,4,0,0,0,4-4,1.135,1.135,0,1,0-2.27,0,1.732,1.732,0,0,1-1.73,1.726,4,4,0,0,0-4,4A1.138,1.138,0,0,0,1151.14,770Zm9.96,11a4,4,0,0,0,4-4,1.8,1.8,0,0,1,1.8-1.8,1.1,1.1,0,0,0,0-2.2,4,4,0,0,0-4,4,1.8,1.8,0,0,1-1.8,1.8A1.1,1.1,0,0,0,1161.1,781Zm6.9,1.5a3.5,3.5,0,1,0,3.5-3.5,3.5,3.5,0,0,0-3.5,3.5h0Zm3.5-1.313a1.313,1.313,0,1,1-1.31,1.313A1.314,1.314,0,0,1,1171.5,781.187Zm-19-1.187a3.5,3.5,0,1,0-3.5-3.5A3.5,3.5,0,0,0,1152.5,780Zm0-4.813a1.313,1.313,0,1,1-1.31,1.313A1.314,1.314,0,0,1,1152.5,775.187Zm-21-7.187a3.5,3.5,0,1,0-3.5-3.5A3.5,3.5,0,0,0,1131.5,768Zm0-4.813a1.313,1.313,0,1,1-1.31,1.313A1.314,1.314,0,0,1,1131.5,763.187Zm36.24,37.112a1.019,1.019,0,1,0-1.44,1.441l0.96,0.961a1.019,1.019,0,1,0,1.44-1.441Zm6,6a1.019,1.019,0,0,0-1.44,1.441l0.96,0.961a1.019,1.019,0,1,0,1.44-1.441Zm-0.48-6-0.96.961a1.019,1.019,0,1,0,1.44,1.441l0.96-.961a1.019,1.019,0,0,0-1.44-1.441h0Zm-6,6-0.96.961a1.019,1.019,0,1,0,1.44,1.441l0.96-.961a1.019,1.019,0,0,0-1.44-1.441h0Zm5.76-42.3a1.018,1.018,0,0,0,.72-0.3l0.96-.961a1.019,1.019,0,0,0-1.44-1.441l-0.96.961a1.02,1.02,0,0,0,.72,1.74h0Zm-6,6a1.018,1.018,0,0,0,.72-0.3l0.96-.961a1.019,1.019,0,0,0-1.44-1.441l-0.96.961A1.02,1.02,0,0,0,1167.02,770Zm6.72-2.7a1.019,1.019,0,0,0-1.44,1.441l0.96,0.961a1.019,1.019,0,1,0,1.44-1.441Zm-6.48-3.6a1.019,1.019,0,1,0,1.44-1.441l-0.96-.961a1.019,1.019,0,0,0-1.44,1.441ZM1139.5,794a1.5,1.5,0,1,0,1.06.439A1.519,1.519,0,0,0,1139.5,794Zm16.62-10.678-0.8.8a1.1,1.1,0,0,0,1.56,1.558l0.8-.8a1.1,1.1,0,1,0-1.56-1.557h0Z" transform="translate(-1117 -761)"/>
</svg>
