<svg xmlns="http://www.w3.org/2000/svg" width="65" height="71" viewBox="0 0 65 71">
  <defs>
    <style>
      .cls-1 {
        fill: #fff;
        fill-rule: evenodd;
      }
    </style>
  </defs>
  <path id="Shape" class="cls-1" d="M878.615,817H840.38a6.407,6.407,0,0,1-6.38-6.337c0-4.619,3.8-8.6,9.338-9.919,1.386-5.6,7.774-9.743,15.22-9.743,7.348,0,13.556,3.9,15.118,9.384,6.5,0.733,11.324,5.024,11.324,10.2v0.06A6.407,6.407,0,0,1,878.615,817h0Zm-20.058-23.922c-6.794,0-12.553,3.749-13.394,8.722a1.02,1.02,0,0,1-.8.839c-4.923.966-8.362,4.236-8.362,7.954a4.372,4.372,0,0,0,4.38,4.334h38.235a4.361,4.361,0,0,0,4.38-4.283l1-.051h-1c0-4.2-4.474-7.8-10.186-8.2a1.011,1.011,0,0,1-.911-0.822c-0.975-4.839-6.711-8.49-13.341-8.49h0ZM859.01,793h-0.076a1.015,1.015,0,0,1-.69-0.345,1,1,0,0,1-.241-0.728,42.655,42.655,0,0,1,1.366-7.954A44.107,44.107,0,0,1,875.36,760.22a1.015,1.015,0,0,1,1.011-.146,1,1,0,0,1,.215,1.735,42.1,42.1,0,0,0-15.268,22.676,40.683,40.683,0,0,0-1.3,7.588,1.006,1.006,0,0,1-1,.927h0Zm16.551-15a22.326,22.326,0,0,1-10.54-3.136,1,1,0,0,1-.433-0.476c-0.166-.376-3.983-9.306.849-17.21,4.192-6.848,13.455-10.61,27.538-11.176a0.979,0.979,0,0,1,.734.29,1.012,1.012,0,0,1,.29.744c-0.028.927-.845,22.764-11.856,29.212A12.8,12.8,0,0,1,875.561,778h0Zm-9.293-4.735c5.908,3.148,10.914,3.567,14.888,1.242,8.749-5.116,10.5-21.992,10.809-26.449-12.774.678-21.132,4.1-24.851,10.181-3.818,6.246-1.437,13.468-.846,15.031v0ZM860.988,785a1.01,1.01,0,0,1-.933-0.6,28.449,28.449,0,0,0-6.567-9.357,29.577,29.577,0,0,0-9.834-6.17,0.98,0.98,0,0,1-.643-0.762,0.95,0.95,0,0,1,.381-0.91,1.045,1.045,0,0,1,1.013-.126,31.629,31.629,0,0,1,10.507,6.591,30.436,30.436,0,0,1,7.011,9.99,0.938,0.938,0,0,1-.093.91,1.022,1.022,0,0,1-.841.431h0ZM845.2,779a9.652,9.652,0,0,1-2.333-.292c-8.9-2.22-13.625-16.576-13.821-17.185a0.955,0.955,0,0,1,.084-0.774,0.993,0.993,0,0,1,.637-0.466c9.846-2.282,16.983-1.517,21.218,2.274,4.909,4.4,3.956,11.129,3.913,11.415a0.966,0.966,0,0,1-.3.56c-3.162,2.969-6.315,4.468-9.4,4.468h0Zm-13.894-17.063c1.214,3.227,5.469,13.242,12.061,14.888,3.028,0.755,6.252-.407,9.6-3.455,0.106-1.289.248-6.193-3.335-9.389s-9.743-3.873-18.322-2.044h0Z" transform="translate(-829 -746)"/>
</svg>
